<mxfile host="Electron" modified="2024-02-15T08:47:34.359Z" agent="Mozilla/5.0 (Macintosh; Intel Mac OS X 10_15_7) AppleWebKit/537.36 (KHTML, like Gecko) draw.io/23.0.2 Chrome/120.0.6099.109 Electron/28.1.0 Safari/537.36" etag="BnWbuXhvBZQi2v194vMs" version="23.0.2" type="device">
  <diagram name="Page-1" id="RDvQlGP695o67iUaaPCG">
    <mxGraphModel dx="1622" dy="606" grid="1" gridSize="10" guides="1" tooltips="1" connect="1" arrows="1" fold="1" page="1" pageScale="1" pageWidth="827" pageHeight="1169" math="0" shadow="0">
      <root>
        <mxCell id="0" />
        <mxCell id="1" parent="0" />
        <mxCell id="DxUBxJZdxv3M1yx-wpIL-50" value="Game" style="swimlane;fontStyle=1;align=center;verticalAlign=top;childLayout=stackLayout;horizontal=1;startSize=26;horizontalStack=0;resizeParent=1;resizeParentMax=0;resizeLast=0;collapsible=1;marginBottom=0;whiteSpace=wrap;html=1;" vertex="1" parent="1">
          <mxGeometry x="100" y="40" width="160" height="134" as="geometry" />
        </mxCell>
        <mxCell id="DxUBxJZdxv3M1yx-wpIL-51" value="screen:&amp;nbsp;&lt;br&gt;clock:&amp;nbsp;&lt;br&gt;current_game:&amp;nbsp;&lt;br&gt;games: li" style="text;strokeColor=none;fillColor=none;align=left;verticalAlign=top;spacingLeft=4;spacingRight=4;overflow=hidden;rotatable=0;points=[[0,0.5],[1,0.5]];portConstraint=eastwest;whiteSpace=wrap;html=1;" vertex="1" parent="DxUBxJZdxv3M1yx-wpIL-50">
          <mxGeometry y="26" width="160" height="74" as="geometry" />
        </mxCell>
        <mxCell id="DxUBxJZdxv3M1yx-wpIL-52" value="" style="line;strokeWidth=1;fillColor=none;align=left;verticalAlign=middle;spacingTop=-1;spacingLeft=3;spacingRight=3;rotatable=0;labelPosition=right;points=[];portConstraint=eastwest;strokeColor=inherit;" vertex="1" parent="DxUBxJZdxv3M1yx-wpIL-50">
          <mxGeometry y="100" width="160" height="8" as="geometry" />
        </mxCell>
        <mxCell id="DxUBxJZdxv3M1yx-wpIL-53" value="start()" style="text;strokeColor=none;fillColor=none;align=left;verticalAlign=top;spacingLeft=4;spacingRight=4;overflow=hidden;rotatable=0;points=[[0,0.5],[1,0.5]];portConstraint=eastwest;whiteSpace=wrap;html=1;" vertex="1" parent="DxUBxJZdxv3M1yx-wpIL-50">
          <mxGeometry y="108" width="160" height="26" as="geometry" />
        </mxCell>
        <mxCell id="DxUBxJZdxv3M1yx-wpIL-54" value="MiniGame" style="swimlane;fontStyle=1;align=center;verticalAlign=top;childLayout=stackLayout;horizontal=1;startSize=26;horizontalStack=0;resizeParent=1;resizeParentMax=0;resizeLast=0;collapsible=1;marginBottom=0;whiteSpace=wrap;html=1;" vertex="1" parent="1">
          <mxGeometry x="100" y="280" width="160" height="118" as="geometry" />
        </mxCell>
        <mxCell id="DxUBxJZdxv3M1yx-wpIL-55" value="is_over: bool" style="text;strokeColor=none;fillColor=none;align=left;verticalAlign=top;spacingLeft=4;spacingRight=4;overflow=hidden;rotatable=0;points=[[0,0.5],[1,0.5]];portConstraint=eastwest;whiteSpace=wrap;html=1;" vertex="1" parent="DxUBxJZdxv3M1yx-wpIL-54">
          <mxGeometry y="26" width="160" height="24" as="geometry" />
        </mxCell>
        <mxCell id="DxUBxJZdxv3M1yx-wpIL-56" value="" style="line;strokeWidth=1;fillColor=none;align=left;verticalAlign=middle;spacingTop=-1;spacingLeft=3;spacingRight=3;rotatable=0;labelPosition=right;points=[];portConstraint=eastwest;strokeColor=inherit;" vertex="1" parent="DxUBxJZdxv3M1yx-wpIL-54">
          <mxGeometry y="50" width="160" height="8" as="geometry" />
        </mxCell>
        <mxCell id="DxUBxJZdxv3M1yx-wpIL-57" value="start()&lt;br&gt;display()&lt;br&gt;update()&lt;br&gt;" style="text;strokeColor=none;fillColor=none;align=left;verticalAlign=top;spacingLeft=4;spacingRight=4;overflow=hidden;rotatable=0;points=[[0,0.5],[1,0.5]];portConstraint=eastwest;whiteSpace=wrap;html=1;" vertex="1" parent="DxUBxJZdxv3M1yx-wpIL-54">
          <mxGeometry y="58" width="160" height="60" as="geometry" />
        </mxCell>
        <mxCell id="DxUBxJZdxv3M1yx-wpIL-62" value="JumpRopeGame" style="swimlane;fontStyle=1;align=center;verticalAlign=top;childLayout=stackLayout;horizontal=1;startSize=26;horizontalStack=0;resizeParent=1;resizeParentMax=0;resizeLast=0;collapsible=1;marginBottom=0;whiteSpace=wrap;html=1;" vertex="1" parent="1">
          <mxGeometry x="-200" y="440" width="160" height="86" as="geometry" />
        </mxCell>
        <mxCell id="DxUBxJZdxv3M1yx-wpIL-63" value="+ field: type" style="text;strokeColor=none;fillColor=none;align=left;verticalAlign=top;spacingLeft=4;spacingRight=4;overflow=hidden;rotatable=0;points=[[0,0.5],[1,0.5]];portConstraint=eastwest;whiteSpace=wrap;html=1;" vertex="1" parent="DxUBxJZdxv3M1yx-wpIL-62">
          <mxGeometry y="26" width="160" height="26" as="geometry" />
        </mxCell>
        <mxCell id="DxUBxJZdxv3M1yx-wpIL-64" value="" style="line;strokeWidth=1;fillColor=none;align=left;verticalAlign=middle;spacingTop=-1;spacingLeft=3;spacingRight=3;rotatable=0;labelPosition=right;points=[];portConstraint=eastwest;strokeColor=inherit;" vertex="1" parent="DxUBxJZdxv3M1yx-wpIL-62">
          <mxGeometry y="52" width="160" height="8" as="geometry" />
        </mxCell>
        <mxCell id="DxUBxJZdxv3M1yx-wpIL-65" value="+ method(type): type" style="text;strokeColor=none;fillColor=none;align=left;verticalAlign=top;spacingLeft=4;spacingRight=4;overflow=hidden;rotatable=0;points=[[0,0.5],[1,0.5]];portConstraint=eastwest;whiteSpace=wrap;html=1;" vertex="1" parent="DxUBxJZdxv3M1yx-wpIL-62">
          <mxGeometry y="60" width="160" height="26" as="geometry" />
        </mxCell>
        <mxCell id="DxUBxJZdxv3M1yx-wpIL-89" style="edgeStyle=orthogonalEdgeStyle;rounded=0;orthogonalLoop=1;jettySize=auto;html=1;" edge="1" parent="1" source="DxUBxJZdxv3M1yx-wpIL-70" target="DxUBxJZdxv3M1yx-wpIL-57">
          <mxGeometry relative="1" as="geometry" />
        </mxCell>
        <mxCell id="DxUBxJZdxv3M1yx-wpIL-70" value="ReactionGame" style="swimlane;fontStyle=1;align=center;verticalAlign=top;childLayout=stackLayout;horizontal=1;startSize=26;horizontalStack=0;resizeParent=1;resizeParentMax=0;resizeLast=0;collapsible=1;marginBottom=0;whiteSpace=wrap;html=1;" vertex="1" parent="1">
          <mxGeometry y="440" width="160" height="86" as="geometry" />
        </mxCell>
        <mxCell id="DxUBxJZdxv3M1yx-wpIL-71" value="+ field: type" style="text;strokeColor=none;fillColor=none;align=left;verticalAlign=top;spacingLeft=4;spacingRight=4;overflow=hidden;rotatable=0;points=[[0,0.5],[1,0.5]];portConstraint=eastwest;whiteSpace=wrap;html=1;" vertex="1" parent="DxUBxJZdxv3M1yx-wpIL-70">
          <mxGeometry y="26" width="160" height="26" as="geometry" />
        </mxCell>
        <mxCell id="DxUBxJZdxv3M1yx-wpIL-72" value="" style="line;strokeWidth=1;fillColor=none;align=left;verticalAlign=middle;spacingTop=-1;spacingLeft=3;spacingRight=3;rotatable=0;labelPosition=right;points=[];portConstraint=eastwest;strokeColor=inherit;" vertex="1" parent="DxUBxJZdxv3M1yx-wpIL-70">
          <mxGeometry y="52" width="160" height="8" as="geometry" />
        </mxCell>
        <mxCell id="DxUBxJZdxv3M1yx-wpIL-73" value="+ method(type): type" style="text;strokeColor=none;fillColor=none;align=left;verticalAlign=top;spacingLeft=4;spacingRight=4;overflow=hidden;rotatable=0;points=[[0,0.5],[1,0.5]];portConstraint=eastwest;whiteSpace=wrap;html=1;" vertex="1" parent="DxUBxJZdxv3M1yx-wpIL-70">
          <mxGeometry y="60" width="160" height="26" as="geometry" />
        </mxCell>
        <mxCell id="DxUBxJZdxv3M1yx-wpIL-74" value="Quiz" style="swimlane;fontStyle=1;align=center;verticalAlign=top;childLayout=stackLayout;horizontal=1;startSize=26;horizontalStack=0;resizeParent=1;resizeParentMax=0;resizeLast=0;collapsible=1;marginBottom=0;whiteSpace=wrap;html=1;" vertex="1" parent="1">
          <mxGeometry x="400" y="440" width="160" height="86" as="geometry" />
        </mxCell>
        <mxCell id="DxUBxJZdxv3M1yx-wpIL-75" value="+ field: type" style="text;strokeColor=none;fillColor=none;align=left;verticalAlign=top;spacingLeft=4;spacingRight=4;overflow=hidden;rotatable=0;points=[[0,0.5],[1,0.5]];portConstraint=eastwest;whiteSpace=wrap;html=1;" vertex="1" parent="DxUBxJZdxv3M1yx-wpIL-74">
          <mxGeometry y="26" width="160" height="26" as="geometry" />
        </mxCell>
        <mxCell id="DxUBxJZdxv3M1yx-wpIL-76" value="" style="line;strokeWidth=1;fillColor=none;align=left;verticalAlign=middle;spacingTop=-1;spacingLeft=3;spacingRight=3;rotatable=0;labelPosition=right;points=[];portConstraint=eastwest;strokeColor=inherit;" vertex="1" parent="DxUBxJZdxv3M1yx-wpIL-74">
          <mxGeometry y="52" width="160" height="8" as="geometry" />
        </mxCell>
        <mxCell id="DxUBxJZdxv3M1yx-wpIL-77" value="+ method(type): type" style="text;strokeColor=none;fillColor=none;align=left;verticalAlign=top;spacingLeft=4;spacingRight=4;overflow=hidden;rotatable=0;points=[[0,0.5],[1,0.5]];portConstraint=eastwest;whiteSpace=wrap;html=1;" vertex="1" parent="DxUBxJZdxv3M1yx-wpIL-74">
          <mxGeometry y="60" width="160" height="26" as="geometry" />
        </mxCell>
        <mxCell id="DxUBxJZdxv3M1yx-wpIL-90" style="edgeStyle=orthogonalEdgeStyle;rounded=0;orthogonalLoop=1;jettySize=auto;html=1;entryX=1;entryY=0.5;entryDx=0;entryDy=0;" edge="1" parent="1" source="DxUBxJZdxv3M1yx-wpIL-78" target="DxUBxJZdxv3M1yx-wpIL-57">
          <mxGeometry relative="1" as="geometry" />
        </mxCell>
        <mxCell id="DxUBxJZdxv3M1yx-wpIL-78" value="LongJumpGame" style="swimlane;fontStyle=1;align=center;verticalAlign=top;childLayout=stackLayout;horizontal=1;startSize=26;horizontalStack=0;resizeParent=1;resizeParentMax=0;resizeLast=0;collapsible=1;marginBottom=0;whiteSpace=wrap;html=1;" vertex="1" parent="1">
          <mxGeometry x="200" y="440" width="160" height="86" as="geometry" />
        </mxCell>
        <mxCell id="DxUBxJZdxv3M1yx-wpIL-79" value="+ field: type" style="text;strokeColor=none;fillColor=none;align=left;verticalAlign=top;spacingLeft=4;spacingRight=4;overflow=hidden;rotatable=0;points=[[0,0.5],[1,0.5]];portConstraint=eastwest;whiteSpace=wrap;html=1;" vertex="1" parent="DxUBxJZdxv3M1yx-wpIL-78">
          <mxGeometry y="26" width="160" height="26" as="geometry" />
        </mxCell>
        <mxCell id="DxUBxJZdxv3M1yx-wpIL-80" value="" style="line;strokeWidth=1;fillColor=none;align=left;verticalAlign=middle;spacingTop=-1;spacingLeft=3;spacingRight=3;rotatable=0;labelPosition=right;points=[];portConstraint=eastwest;strokeColor=inherit;" vertex="1" parent="DxUBxJZdxv3M1yx-wpIL-78">
          <mxGeometry y="52" width="160" height="8" as="geometry" />
        </mxCell>
        <mxCell id="DxUBxJZdxv3M1yx-wpIL-81" value="+ method(type): type" style="text;strokeColor=none;fillColor=none;align=left;verticalAlign=top;spacingLeft=4;spacingRight=4;overflow=hidden;rotatable=0;points=[[0,0.5],[1,0.5]];portConstraint=eastwest;whiteSpace=wrap;html=1;" vertex="1" parent="DxUBxJZdxv3M1yx-wpIL-78">
          <mxGeometry y="60" width="160" height="26" as="geometry" />
        </mxCell>
        <mxCell id="DxUBxJZdxv3M1yx-wpIL-88" value="" style="endArrow=diamondThin;endFill=1;endSize=24;html=1;rounded=0;exitX=0.5;exitY=0;exitDx=0;exitDy=0;entryX=0.513;entryY=1.154;entryDx=0;entryDy=0;entryPerimeter=0;" edge="1" parent="1" source="DxUBxJZdxv3M1yx-wpIL-54" target="DxUBxJZdxv3M1yx-wpIL-53">
          <mxGeometry width="160" relative="1" as="geometry">
            <mxPoint x="120" y="240" as="sourcePoint" />
            <mxPoint x="280" y="240" as="targetPoint" />
          </mxGeometry>
        </mxCell>
        <mxCell id="DxUBxJZdxv3M1yx-wpIL-93" style="edgeStyle=orthogonalEdgeStyle;rounded=0;orthogonalLoop=1;jettySize=auto;html=1;entryX=1.009;entryY=0.165;entryDx=0;entryDy=0;entryPerimeter=0;" edge="1" parent="1" source="DxUBxJZdxv3M1yx-wpIL-74" target="DxUBxJZdxv3M1yx-wpIL-57">
          <mxGeometry relative="1" as="geometry" />
        </mxCell>
        <mxCell id="DxUBxJZdxv3M1yx-wpIL-94" style="edgeStyle=orthogonalEdgeStyle;rounded=0;orthogonalLoop=1;jettySize=auto;html=1;entryX=-0.005;entryY=0.146;entryDx=0;entryDy=0;entryPerimeter=0;" edge="1" parent="1" source="DxUBxJZdxv3M1yx-wpIL-62" target="DxUBxJZdxv3M1yx-wpIL-57">
          <mxGeometry relative="1" as="geometry" />
        </mxCell>
      </root>
    </mxGraphModel>
  </diagram>
</mxfile>
